<?xml version="1.0" standalone="no"?>
<svg xmlns:xlink="http://www.w3.org/1999/xlink" id="wave" style="transform:rotate(0deg); transition: 0.3s" viewBox="0 0 1440 230" version="1.1" xmlns="http://www.w3.org/2000/svg"><defs><linearGradient id="sw-gradient-0" x1="0" x2="0" y1="1" y2="0"><stop stop-color="rgba(243, 106, 62, 1)" offset="0%"/><stop stop-color="rgba(255, 179, 11, 1)" offset="100%"/></linearGradient></defs><path style="transform:translate(0, 0px); opacity:1" fill="url(#sw-gradient-0)" d="M0,46L18.5,65.2C36.9,84,74,123,111,149.5C147.7,176,185,192,222,172.5C258.5,153,295,100,332,88.2C369.2,77,406,107,443,99.7C480,92,517,46,554,42.2C590.8,38,628,77,665,80.5C701.5,84,738,54,775,69C812.3,84,849,146,886,149.5C923.1,153,960,100,997,65.2C1033.8,31,1071,15,1108,7.7C1144.6,0,1182,0,1218,19.2C1255.4,38,1292,77,1329,107.3C1366.2,138,1403,161,1440,172.5C1476.9,184,1514,184,1551,168.7C1587.7,153,1625,123,1662,99.7C1698.5,77,1735,61,1772,80.5C1809.2,100,1846,153,1883,168.7C1920,184,1957,161,1994,130.3C2030.8,100,2068,61,2105,69C2141.5,77,2178,130,2215,145.7C2252.3,161,2289,138,2326,138C2363.1,138,2400,161,2437,145.7C2473.8,130,2511,77,2548,72.8C2584.6,69,2622,115,2640,138L2658.5,161L2658.5,230L2640,230C2621.5,230,2585,230,2548,230C2510.8,230,2474,230,2437,230C2400,230,2363,230,2326,230C2289.2,230,2252,230,2215,230C2178.5,230,2142,230,2105,230C2067.7,230,2031,230,1994,230C1956.9,230,1920,230,1883,230C1846.2,230,1809,230,1772,230C1735.4,230,1698,230,1662,230C1624.6,230,1588,230,1551,230C1513.8,230,1477,230,1440,230C1403.1,230,1366,230,1329,230C1292.3,230,1255,230,1218,230C1181.5,230,1145,230,1108,230C1070.8,230,1034,230,997,230C960,230,923,230,886,230C849.2,230,812,230,775,230C738.5,230,702,230,665,230C627.7,230,591,230,554,230C516.9,230,480,230,443,230C406.2,230,369,230,332,230C295.4,230,258,230,222,230C184.6,230,148,230,111,230C73.8,230,37,230,18,230L0,230Z"/><defs><linearGradient id="sw-gradient-1" x1="0" x2="0" y1="1" y2="0"><stop stop-color="rgba(243, 106, 62, 1)" offset="0%"/><stop stop-color="rgba(255, 179, 11, 1)" offset="100%"/></linearGradient></defs><path style="transform:translate(0, 50px); opacity:0.9" fill="url(#sw-gradient-1)" d="M0,207L18.5,199.3C36.9,192,74,176,111,164.8C147.7,153,185,146,222,153.3C258.5,161,295,184,332,180.2C369.2,176,406,146,443,126.5C480,107,517,100,554,103.5C590.8,107,628,123,665,138C701.5,153,738,169,775,164.8C812.3,161,849,138,886,118.8C923.1,100,960,84,997,88.2C1033.8,92,1071,115,1108,115C1144.6,115,1182,92,1218,95.8C1255.4,100,1292,130,1329,130.3C1366.2,130,1403,100,1440,88.2C1476.9,77,1514,84,1551,76.7C1587.7,69,1625,46,1662,34.5C1698.5,23,1735,23,1772,34.5C1809.2,46,1846,69,1883,76.7C1920,84,1957,77,1994,92C2030.8,107,2068,146,2105,145.7C2141.5,146,2178,107,2215,111.2C2252.3,115,2289,161,2326,161C2363.1,161,2400,115,2437,99.7C2473.8,84,2511,100,2548,122.7C2584.6,146,2622,176,2640,191.7L2658.5,207L2658.5,230L2640,230C2621.5,230,2585,230,2548,230C2510.8,230,2474,230,2437,230C2400,230,2363,230,2326,230C2289.2,230,2252,230,2215,230C2178.5,230,2142,230,2105,230C2067.7,230,2031,230,1994,230C1956.9,230,1920,230,1883,230C1846.2,230,1809,230,1772,230C1735.4,230,1698,230,1662,230C1624.6,230,1588,230,1551,230C1513.8,230,1477,230,1440,230C1403.1,230,1366,230,1329,230C1292.3,230,1255,230,1218,230C1181.5,230,1145,230,1108,230C1070.8,230,1034,230,997,230C960,230,923,230,886,230C849.2,230,812,230,775,230C738.5,230,702,230,665,230C627.7,230,591,230,554,230C516.9,230,480,230,443,230C406.2,230,369,230,332,230C295.4,230,258,230,222,230C184.6,230,148,230,111,230C73.8,230,37,230,18,230L0,230Z"/><defs><linearGradient id="sw-gradient-2" x1="0" x2="0" y1="1" y2="0"><stop stop-color="rgba(243, 106, 62, 1)" offset="0%"/><stop stop-color="rgba(255, 179, 11, 1)" offset="100%"/></linearGradient></defs><path style="transform:translate(0, 100px); opacity:0.8" fill="url(#sw-gradient-2)" d="M0,92L18.5,76.7C36.9,61,74,31,111,23C147.7,15,185,31,222,49.8C258.5,69,295,92,332,107.3C369.2,123,406,130,443,115C480,100,517,61,554,53.7C590.8,46,628,69,665,99.7C701.5,130,738,169,775,187.8C812.3,207,849,207,886,172.5C923.1,138,960,69,997,65.2C1033.8,61,1071,123,1108,141.8C1144.6,161,1182,138,1218,111.2C1255.4,84,1292,54,1329,34.5C1366.2,15,1403,8,1440,19.2C1476.9,31,1514,61,1551,65.2C1587.7,69,1625,46,1662,30.7C1698.5,15,1735,8,1772,19.2C1809.2,31,1846,61,1883,65.2C1920,69,1957,46,1994,57.5C2030.8,69,2068,115,2105,118.8C2141.5,123,2178,84,2215,92C2252.3,100,2289,153,2326,164.8C2363.1,176,2400,146,2437,111.2C2473.8,77,2511,38,2548,46C2584.6,54,2622,107,2640,134.2L2658.5,161L2658.5,230L2640,230C2621.5,230,2585,230,2548,230C2510.8,230,2474,230,2437,230C2400,230,2363,230,2326,230C2289.2,230,2252,230,2215,230C2178.5,230,2142,230,2105,230C2067.7,230,2031,230,1994,230C1956.9,230,1920,230,1883,230C1846.2,230,1809,230,1772,230C1735.4,230,1698,230,1662,230C1624.6,230,1588,230,1551,230C1513.8,230,1477,230,1440,230C1403.1,230,1366,230,1329,230C1292.3,230,1255,230,1218,230C1181.5,230,1145,230,1108,230C1070.8,230,1034,230,997,230C960,230,923,230,886,230C849.2,230,812,230,775,230C738.5,230,702,230,665,230C627.7,230,591,230,554,230C516.9,230,480,230,443,230C406.2,230,369,230,332,230C295.4,230,258,230,222,230C184.6,230,148,230,111,230C73.8,230,37,230,18,230L0,230Z"/><defs><linearGradient id="sw-gradient-3" x1="0" x2="0" y1="1" y2="0"><stop stop-color="rgba(243, 106, 62, 1)" offset="0%"/><stop stop-color="rgba(255, 179, 11, 1)" offset="100%"/></linearGradient></defs><path style="transform:translate(0, 150px); opacity:0.7" fill="url(#sw-gradient-3)" d="M0,23L18.5,53.7C36.9,84,74,146,111,172.5C147.7,199,185,192,222,191.7C258.5,192,295,199,332,191.7C369.2,184,406,161,443,134.2C480,107,517,77,554,61.3C590.8,46,628,46,665,53.7C701.5,61,738,77,775,84.3C812.3,92,849,92,886,99.7C923.1,107,960,123,997,141.8C1033.8,161,1071,184,1108,161C1144.6,138,1182,69,1218,38.3C1255.4,8,1292,15,1329,42.2C1366.2,69,1403,115,1440,111.2C1476.9,107,1514,54,1551,49.8C1587.7,46,1625,92,1662,111.2C1698.5,130,1735,123,1772,103.5C1809.2,84,1846,54,1883,57.5C1920,61,1957,100,1994,126.5C2030.8,153,2068,169,2105,164.8C2141.5,161,2178,138,2215,141.8C2252.3,146,2289,176,2326,172.5C2363.1,169,2400,130,2437,99.7C2473.8,69,2511,46,2548,34.5C2584.6,23,2622,23,2640,23L2658.5,23L2658.5,230L2640,230C2621.5,230,2585,230,2548,230C2510.8,230,2474,230,2437,230C2400,230,2363,230,2326,230C2289.2,230,2252,230,2215,230C2178.5,230,2142,230,2105,230C2067.7,230,2031,230,1994,230C1956.9,230,1920,230,1883,230C1846.2,230,1809,230,1772,230C1735.4,230,1698,230,1662,230C1624.6,230,1588,230,1551,230C1513.8,230,1477,230,1440,230C1403.1,230,1366,230,1329,230C1292.3,230,1255,230,1218,230C1181.5,230,1145,230,1108,230C1070.8,230,1034,230,997,230C960,230,923,230,886,230C849.2,230,812,230,775,230C738.5,230,702,230,665,230C627.7,230,591,230,554,230C516.9,230,480,230,443,230C406.2,230,369,230,332,230C295.4,230,258,230,222,230C184.6,230,148,230,111,230C73.8,230,37,230,18,230L0,230Z"/></svg>